<svg version="1.2" xmlns="http://www.w3.org/2000/svg" viewBox="0 0 1024 768" width="1024" height="768">
	<title>logo</title>
	<style>
		.s0 { fill: #000000 } 
	</style>
	<path id="Fercius" class="s0" aria-label="Fercius"  d="m283.3 248.8l-13.5 41.7h-38.7l-28.7 88.5h39.6l-13.5 42.1h-39.5l-27.4 83.4-48.9 15.1 32.4-98.5h-34.1l13.5-42.1h34.1l28.7-88.5h-112.9q-4.6 0-6.8 1.7-2.1 1.3-2.1 3.4 0 2.9 2.6 7.1 2.5 4.2 6.3 8.4 1.3 1.3 2.1 3 1.3 1.3 2.5 2.5 4.2 4.7 8 8.4 3.8 3.8 5.1 5.5l-32 26.1q-2.6-2.9-5.5-5.9-2.5-3.3-5.1-6.7-9.7-11.4-17.7-24.4-8-13.5-8-28.3 0-18.5 14.8-30.3 15.1-12.2 54.7-12.2zm101.6 207.7l-13.9 41.7h-91.9q-11.3 0-21.5-4.7-9.6-5-15.1-15.1-2.5-4.7-3.8-10.1-1.3-5.5-1.3-11 0-1.3 0-2.5 0.5-1.7 0.5-3.4 0.8-8.4 3.3-16.8 3-8.9 5.9-16 8.9-20.3 21.5-33.3 13.1-13.5 27-20.2 5.9-3.4 11.3-5.1 5.9-2.1 11.4-2.9 2.5-0.5 5.1-0.5 2.5-0.4 5.4-0.4 17.3 0 30.8 9.7 13.5 9.7 13.5 27 0 3.3-0.9 7.1-0.4 3.4-2.1 7.6-3.4 10.5-13.9 23.2-10.5 12.2-29.5 25.7zm-55.2-59.4q-15.1 0.8-26.5 11.8-11.4 10.9-16.8 24 0 0.4-0.5 0.8 0 0 0 0.4 19.4-11.3 29.5-20.6 10.6-9.7 14.3-16.4zm195.9 6.7h-16q-2.5 1.7-7.6 6.7-5 5.1-10.5 11.4-1.7 1.7-3.4 3.8-1.7 2.1-3.3 3.8-5.5 7.2-9.3 13.5-3.8 5.9-3.8 9.7 0.4 1.7 1.3 2.9 1.2 0.9 3.7 0.9h47.2l-13.5 41.7q-2.9 0-7.5 0-4.3 0-9.3 0-5.1 0-9.7 0-4.2 0-7.2 0-13 0-24.4-5.9-10.9-5.9-17.3-17.7-1.2-2.6-2.1-5.1-0.8-2.5-1.2-5.5-0.9-2.5-1.3-5 0-2.5 0-5.1 0-13.4 5.9-26.1 5.9-13 13.9-24h-6.7q-1.3 0-2.6 0.4-0.8 0-2.1 0.5-4.2 1.2-8 5-3.8 3.4-5.4 7.2-0.5 0.4-0.9 1.2 0 0.5 0 0.9l-3.4 9.7-39.5-13.1 23.1-72.4 40 13-2.1 5.5h83zm152.1 52.6l-13.9 41.7h-93.5q-11.8 0-21.9-5-10.2-5.5-15.6-16-2.6-5.1-3.8-10.1-0.9-5.5-0.9-11 0-10.5 3-20.6 3.4-10.1 7.6-19 0-0.4 0-0.4 0.4-0.4 0.4-0.8 11.4-21.9 34.1-40.1 23.2-18.1 48.9-18.1 0.8 0 1.2 0 0.9 0 1.7 0 0.4 0.5 1.3 0.5 0.8 0 1.7 0 16 1.6 26.1 11.7 10.1 10.2 10.1 25.7 0 0.5 0 1.3 0 0.8 0 1.3 0 0.8-0.4 1.7 0 0.4 0 1.2l-2.1 18.6h-42.2l2.1-20.3q-12.2 0.9-23.1 9.7-11 8.9-17.7 19.4-1.3 2.1-2.5 3.8-0.9 1.7-1.7 3.4 0 0.4-1.3 2.9-0.8 2.1-2.1 5.5-0.4 0.4-0.8 1.2 0 0.5-0.5 0.9-0.8 2.9-1.6 5.9-0.9 2.5-0.9 3.8 0 0.4 0 0.8 0.4 0.4 0.9 0.4zm80 0l-13.5 41.7h-37.9q-15.6 0-25.3-10.1-9.7-10.5-9.7-24.4 0-1.7 0-2.9 0.5-1.7 0.5-3.4 0.4-1.3 0.8-2.5 0.4-1.7 0.8-3.4l28.7-89.7h44.2l-30.3 94.7zm10.5-158.3q0 11.8-8.4 20.6-8 8.4-20.2 8.4-11.8 0-20.2-8.4-8.5-8.8-8.5-20.6 0-11.8 8.5-20.3 8.4-8.4 20.2-8.4 12.2 0 20.2 8.4 8.4 8.5 8.4 20.3zm131.9 158.3l-13.9 41.7q-3 0-6.4 0-2.9 0-6.3 0-9.3 0-18.1-3.3-8.4-3.4-15.2-9.3-8.4 5.9-18.5 9.3-9.7 3.3-19.8 3.3-2.1 0-4.2 0-1.7-0.4-3.8-0.8-2.1 0-4.2-0.4-1.7-0.9-3.8-1.3-15.2-5-23.2-17.3-7.5-12.2-7.1-26.5 0-2.1 0-4.2 0.4-2.1 0.8-4.2 0-2.1 0.4-4.2 0.9-2.1 1.3-4.2l23.6-73.3h43.8l-27.8 86.3q-0.4 1.3-0.8 2.5 0 1.3 0 2.1 0 1.7 0.8 3 1.3 0.8 4.2 0.8 1.3 0 2.5 0 1.3-0.4 2.6-0.8 7.1-1.7 13.4-7.2 6.4-5.9 8.5-12.2 0-0.4 0-0.4 0.4-0.4 0.4-0.8l24-73.3h43.4l-27.4 86.3q-0.4 1.3-0.8 2.5 0 1.3 0 2.1 0 1.7 0.8 3 1.3 0.8 4.2 0.8zm101.5-21.9q0 28.3-17.2 45.9-17.3 17.7-46 17.7h-42.5l13.5-41.7h29q11 0 16.1-5 5.4-5.5 5.4-16.9 0-5.9-1.2-10.9-1.3-5.5-3.4-9.7-8 10.9-13.9 19-5.5 7.5-5.5 8l-33.7-24.5q0 0 8.9-12.6 9.2-12.6 20.6-27.8 10.5-15.2 19.8-27.8 9.3-12.6 9.3-13.1l37.5 18.6q-0.5 0.4-5.1 7.1-4.6 6.8-11.8 16.5 9.7 11.7 14.7 26.9 5.5 14.8 5.5 30.3z"/>
</svg>